<mxfile host="app.diagrams.net" modified="2023-10-15T22:47:43.808Z" agent="Mozilla/5.0 (Windows NT 10.0; Win64; x64) AppleWebKit/537.36 (KHTML, like Gecko) Chrome/118.0.0.0 Safari/537.36" etag="Mp6xRMAGHdxtD6Q0LGMw" version="22.0.4" type="github">
  <diagram name="Page-1" id="Pcqsmlme5_Lro8zMYVsA">
    <mxGraphModel dx="3364" dy="1366" grid="1" gridSize="10" guides="1" tooltips="1" connect="1" arrows="1" fold="1" page="1" pageScale="1" pageWidth="850" pageHeight="1100" math="0" shadow="0">
      <root>
        <mxCell id="0" />
        <mxCell id="1" parent="0" />
        <mxCell id="FqG49EghefAGWDnfyC0o-43" value="" style="rounded=0;whiteSpace=wrap;html=1;" vertex="1" parent="1">
          <mxGeometry x="-180" y="1090" width="1090" height="740" as="geometry" />
        </mxCell>
        <mxCell id="-4lkkh-zpTQXG72Wgfdq-1" value="" style="ellipse;html=1;shape=startState;fillColor=#000000;strokeColor=#ff0000;" parent="1" vertex="1">
          <mxGeometry x="425" y="450" width="30" height="30" as="geometry" />
        </mxCell>
        <mxCell id="-4lkkh-zpTQXG72Wgfdq-2" value="" style="edgeStyle=orthogonalEdgeStyle;html=1;verticalAlign=bottom;endArrow=open;endSize=8;strokeColor=#ff0000;rounded=0;entryX=0.5;entryY=0;entryDx=0;entryDy=0;" parent="1" source="-4lkkh-zpTQXG72Wgfdq-1" target="-4lkkh-zpTQXG72Wgfdq-3" edge="1">
          <mxGeometry relative="1" as="geometry">
            <mxPoint x="440" y="560" as="targetPoint" />
          </mxGeometry>
        </mxCell>
        <mxCell id="-4lkkh-zpTQXG72Wgfdq-3" value="Login" style="rounded=1;whiteSpace=wrap;html=1;" parent="1" vertex="1">
          <mxGeometry x="380" y="580" width="120" height="40" as="geometry" />
        </mxCell>
        <mxCell id="-4lkkh-zpTQXG72Wgfdq-9" style="edgeStyle=orthogonalEdgeStyle;rounded=0;orthogonalLoop=1;jettySize=auto;html=1;entryX=0;entryY=0.5;entryDx=0;entryDy=0;" parent="1" source="-4lkkh-zpTQXG72Wgfdq-4" target="-4lkkh-zpTQXG72Wgfdq-3" edge="1">
          <mxGeometry relative="1" as="geometry" />
        </mxCell>
        <mxCell id="-4lkkh-zpTQXG72Wgfdq-4" value="Register" style="rounded=1;whiteSpace=wrap;html=1;" parent="1" vertex="1">
          <mxGeometry x="210" y="580" width="120" height="40" as="geometry" />
        </mxCell>
        <mxCell id="-4lkkh-zpTQXG72Wgfdq-8" style="edgeStyle=orthogonalEdgeStyle;rounded=0;orthogonalLoop=1;jettySize=auto;html=1;exitX=1;exitY=0.5;exitDx=0;exitDy=0;exitPerimeter=0;entryX=1;entryY=0.5;entryDx=0;entryDy=0;" parent="1" source="-4lkkh-zpTQXG72Wgfdq-5" target="-4lkkh-zpTQXG72Wgfdq-3" edge="1">
          <mxGeometry relative="1" as="geometry">
            <mxPoint x="640" y="600" as="targetPoint" />
            <Array as="points">
              <mxPoint x="610" y="730" />
              <mxPoint x="610" y="600" />
            </Array>
          </mxGeometry>
        </mxCell>
        <mxCell id="-4lkkh-zpTQXG72Wgfdq-5" value="Authen" style="strokeWidth=2;html=1;shape=mxgraph.flowchart.decision;whiteSpace=wrap;" parent="1" vertex="1">
          <mxGeometry x="390" y="680" width="100" height="100" as="geometry" />
        </mxCell>
        <mxCell id="-4lkkh-zpTQXG72Wgfdq-6" value="" style="endArrow=none;html=1;rounded=0;exitX=0.5;exitY=0;exitDx=0;exitDy=0;" parent="1" source="-4lkkh-zpTQXG72Wgfdq-4" edge="1">
          <mxGeometry width="50" height="50" relative="1" as="geometry">
            <mxPoint x="400" y="680" as="sourcePoint" />
            <mxPoint x="440" y="520" as="targetPoint" />
            <Array as="points">
              <mxPoint x="270" y="520" />
            </Array>
          </mxGeometry>
        </mxCell>
        <mxCell id="-4lkkh-zpTQXG72Wgfdq-7" style="edgeStyle=orthogonalEdgeStyle;rounded=0;orthogonalLoop=1;jettySize=auto;html=1;entryX=0.5;entryY=0;entryDx=0;entryDy=0;entryPerimeter=0;" parent="1" source="-4lkkh-zpTQXG72Wgfdq-3" target="-4lkkh-zpTQXG72Wgfdq-5" edge="1">
          <mxGeometry relative="1" as="geometry" />
        </mxCell>
        <mxCell id="-4lkkh-zpTQXG72Wgfdq-26" value="View Posts" style="rounded=1;whiteSpace=wrap;html=1;" parent="1" vertex="1">
          <mxGeometry x="386" y="1180" width="110" height="60" as="geometry" />
        </mxCell>
        <mxCell id="-4lkkh-zpTQXG72Wgfdq-27" value="View comments" style="rounded=1;whiteSpace=wrap;html=1;" parent="1" vertex="1">
          <mxGeometry x="392" y="1340" width="100" height="60" as="geometry" />
        </mxCell>
        <mxCell id="-4lkkh-zpTQXG72Wgfdq-31" value="Edit post" style="rounded=1;whiteSpace=wrap;html=1;" parent="1" vertex="1">
          <mxGeometry x="-152" y="1355" width="100" height="30" as="geometry" />
        </mxCell>
        <mxCell id="-4lkkh-zpTQXG72Wgfdq-32" value="Delete post" style="rounded=1;whiteSpace=wrap;html=1;" parent="1" vertex="1">
          <mxGeometry y="1355" width="100" height="30" as="geometry" />
        </mxCell>
        <mxCell id="-4lkkh-zpTQXG72Wgfdq-35" value="Edit comment" style="rounded=1;whiteSpace=wrap;html=1;" parent="1" vertex="1">
          <mxGeometry x="100" y="1523" width="100" height="30" as="geometry" />
        </mxCell>
        <mxCell id="-4lkkh-zpTQXG72Wgfdq-36" value="Delete comment" style="rounded=1;whiteSpace=wrap;html=1;" parent="1" vertex="1">
          <mxGeometry x="240" y="1523" width="100" height="30" as="geometry" />
        </mxCell>
        <mxCell id="FqG49EghefAGWDnfyC0o-29" style="edgeStyle=orthogonalEdgeStyle;rounded=0;orthogonalLoop=1;jettySize=auto;html=1;exitX=1;exitY=0.5;exitDx=0;exitDy=0;exitPerimeter=0;entryX=0.5;entryY=0;entryDx=0;entryDy=0;" edge="1" parent="1" source="-4lkkh-zpTQXG72Wgfdq-53" target="FqG49EghefAGWDnfyC0o-28">
          <mxGeometry relative="1" as="geometry" />
        </mxCell>
        <mxCell id="-4lkkh-zpTQXG72Wgfdq-53" value="" style="shape=line;html=1;strokeWidth=6;strokeColor=#ff0000;" parent="1" vertex="1">
          <mxGeometry x="120" y="1120" width="700" height="10" as="geometry" />
        </mxCell>
        <mxCell id="-4lkkh-zpTQXG72Wgfdq-54" value="" style="edgeStyle=orthogonalEdgeStyle;html=1;verticalAlign=bottom;endArrow=open;endSize=8;strokeColor=#ff0000;rounded=0;entryX=0.5;entryY=0;entryDx=0;entryDy=0;" parent="1" target="-4lkkh-zpTQXG72Wgfdq-26" edge="1">
          <mxGeometry relative="1" as="geometry">
            <mxPoint x="441" y="1180" as="targetPoint" />
            <Array as="points" />
            <mxPoint x="441" y="1120" as="sourcePoint" />
          </mxGeometry>
        </mxCell>
        <mxCell id="-4lkkh-zpTQXG72Wgfdq-58" value="View reviews" style="rounded=1;whiteSpace=wrap;html=1;" parent="1" vertex="1">
          <mxGeometry x="390" y="1508" width="100" height="60" as="geometry" />
        </mxCell>
        <mxCell id="-4lkkh-zpTQXG72Wgfdq-86" value="Write comment" style="rounded=1;whiteSpace=wrap;html=1;" parent="1" vertex="1">
          <mxGeometry x="675" y="1355" width="100" height="30" as="geometry" />
        </mxCell>
        <mxCell id="-4lkkh-zpTQXG72Wgfdq-87" value="Edit Review" style="rounded=1;whiteSpace=wrap;html=1;" parent="1" vertex="1">
          <mxGeometry x="330" y="1760" width="100" height="30" as="geometry" />
        </mxCell>
        <mxCell id="-4lkkh-zpTQXG72Wgfdq-88" value="Delete Review" style="rounded=1;whiteSpace=wrap;html=1;" parent="1" vertex="1">
          <mxGeometry x="450" y="1760" width="100" height="30" as="geometry" />
        </mxCell>
        <mxCell id="-4lkkh-zpTQXG72Wgfdq-92" value="Write review" style="rounded=1;whiteSpace=wrap;html=1;" parent="1" vertex="1">
          <mxGeometry x="550" y="1523" width="100" height="30" as="geometry" />
        </mxCell>
        <mxCell id="-4lkkh-zpTQXG72Wgfdq-102" style="edgeStyle=orthogonalEdgeStyle;rounded=0;orthogonalLoop=1;jettySize=auto;html=1;exitX=0.25;exitY=0.5;exitDx=0;exitDy=0;exitPerimeter=0;entryX=0.5;entryY=0;entryDx=0;entryDy=0;" parent="1" source="-4lkkh-zpTQXG72Wgfdq-97" target="-4lkkh-zpTQXG72Wgfdq-32" edge="1">
          <mxGeometry relative="1" as="geometry">
            <Array as="points">
              <mxPoint x="50" y="1285" />
            </Array>
          </mxGeometry>
        </mxCell>
        <mxCell id="-4lkkh-zpTQXG72Wgfdq-103" style="edgeStyle=orthogonalEdgeStyle;rounded=0;orthogonalLoop=1;jettySize=auto;html=1;exitX=0;exitY=0.5;exitDx=0;exitDy=0;exitPerimeter=0;entryX=0.5;entryY=0;entryDx=0;entryDy=0;" parent="1" source="-4lkkh-zpTQXG72Wgfdq-97" target="-4lkkh-zpTQXG72Wgfdq-31" edge="1">
          <mxGeometry relative="1" as="geometry" />
        </mxCell>
        <mxCell id="-4lkkh-zpTQXG72Wgfdq-104" style="edgeStyle=orthogonalEdgeStyle;rounded=0;orthogonalLoop=1;jettySize=auto;html=1;exitX=1;exitY=0.5;exitDx=0;exitDy=0;exitPerimeter=0;entryX=0.5;entryY=0;entryDx=0;entryDy=0;" parent="1" source="-4lkkh-zpTQXG72Wgfdq-97" target="-4lkkh-zpTQXG72Wgfdq-86" edge="1">
          <mxGeometry relative="1" as="geometry" />
        </mxCell>
        <mxCell id="-4lkkh-zpTQXG72Wgfdq-97" value="" style="shape=line;html=1;strokeWidth=6;strokeColor=#ff0000;" parent="1" vertex="1">
          <mxGeometry x="1" y="1280" width="700" height="10" as="geometry" />
        </mxCell>
        <mxCell id="-4lkkh-zpTQXG72Wgfdq-98" value="" style="edgeStyle=orthogonalEdgeStyle;html=1;verticalAlign=bottom;endArrow=open;endSize=8;strokeColor=#ff0000;rounded=0;entryX=0.5;entryY=0;entryDx=0;entryDy=0;" parent="1" source="-4lkkh-zpTQXG72Wgfdq-97" target="-4lkkh-zpTQXG72Wgfdq-27" edge="1">
          <mxGeometry relative="1" as="geometry">
            <mxPoint x="441" y="1435" as="targetPoint" />
            <Array as="points">
              <mxPoint x="441" y="1315" />
              <mxPoint x="441" y="1315" />
            </Array>
          </mxGeometry>
        </mxCell>
        <mxCell id="-4lkkh-zpTQXG72Wgfdq-105" style="edgeStyle=orthogonalEdgeStyle;rounded=0;orthogonalLoop=1;jettySize=auto;html=1;exitX=0.25;exitY=0.5;exitDx=0;exitDy=0;exitPerimeter=0;" parent="1" source="-4lkkh-zpTQXG72Wgfdq-100" target="-4lkkh-zpTQXG72Wgfdq-36" edge="1">
          <mxGeometry relative="1" as="geometry">
            <Array as="points">
              <mxPoint x="290" y="1445" />
            </Array>
          </mxGeometry>
        </mxCell>
        <mxCell id="-4lkkh-zpTQXG72Wgfdq-106" style="edgeStyle=orthogonalEdgeStyle;rounded=0;orthogonalLoop=1;jettySize=auto;html=1;exitX=0;exitY=0.5;exitDx=0;exitDy=0;exitPerimeter=0;entryX=0.5;entryY=0;entryDx=0;entryDy=0;" parent="1" source="-4lkkh-zpTQXG72Wgfdq-100" target="-4lkkh-zpTQXG72Wgfdq-35" edge="1">
          <mxGeometry relative="1" as="geometry" />
        </mxCell>
        <mxCell id="FqG49EghefAGWDnfyC0o-24" style="edgeStyle=orthogonalEdgeStyle;rounded=0;orthogonalLoop=1;jettySize=auto;html=1;exitX=1;exitY=0.5;exitDx=0;exitDy=0;exitPerimeter=0;entryX=0.75;entryY=0;entryDx=0;entryDy=0;" edge="1" parent="1" source="-4lkkh-zpTQXG72Wgfdq-100" target="-4lkkh-zpTQXG72Wgfdq-92">
          <mxGeometry relative="1" as="geometry" />
        </mxCell>
        <mxCell id="-4lkkh-zpTQXG72Wgfdq-100" value="" style="shape=line;html=1;strokeWidth=6;strokeColor=#ff0000;" parent="1" vertex="1">
          <mxGeometry x="271" y="1440" width="331" height="10" as="geometry" />
        </mxCell>
        <mxCell id="-4lkkh-zpTQXG72Wgfdq-110" style="edgeStyle=orthogonalEdgeStyle;rounded=0;orthogonalLoop=1;jettySize=auto;html=1;exitX=1;exitY=0.5;exitDx=0;exitDy=0;exitPerimeter=0;" parent="1" source="-4lkkh-zpTQXG72Wgfdq-108" target="-4lkkh-zpTQXG72Wgfdq-88" edge="1">
          <mxGeometry relative="1" as="geometry" />
        </mxCell>
        <mxCell id="-4lkkh-zpTQXG72Wgfdq-111" style="edgeStyle=orthogonalEdgeStyle;rounded=0;orthogonalLoop=1;jettySize=auto;html=1;exitX=0;exitY=0.5;exitDx=0;exitDy=0;exitPerimeter=0;entryX=0.5;entryY=0;entryDx=0;entryDy=0;" parent="1" source="-4lkkh-zpTQXG72Wgfdq-108" target="-4lkkh-zpTQXG72Wgfdq-87" edge="1">
          <mxGeometry relative="1" as="geometry" />
        </mxCell>
        <mxCell id="-4lkkh-zpTQXG72Wgfdq-108" value="" style="shape=line;html=1;strokeWidth=6;strokeColor=#ff0000;" parent="1" vertex="1">
          <mxGeometry x="400" y="1660" width="80" height="10" as="geometry" />
        </mxCell>
        <mxCell id="-4lkkh-zpTQXG72Wgfdq-115" style="edgeStyle=orthogonalEdgeStyle;rounded=0;orthogonalLoop=1;jettySize=auto;html=1;exitX=0.5;exitY=1;exitDx=0;exitDy=0;entryX=0.5;entryY=0.2;entryDx=0;entryDy=0;entryPerimeter=0;" parent="1" source="-4lkkh-zpTQXG72Wgfdq-58" target="-4lkkh-zpTQXG72Wgfdq-108" edge="1">
          <mxGeometry relative="1" as="geometry" />
        </mxCell>
        <mxCell id="-4lkkh-zpTQXG72Wgfdq-140" style="edgeStyle=orthogonalEdgeStyle;rounded=0;orthogonalLoop=1;jettySize=auto;html=1;exitX=0.5;exitY=1;exitDx=0;exitDy=0;entryX=0.5;entryY=0;entryDx=0;entryDy=0;" parent="1" edge="1">
          <mxGeometry relative="1" as="geometry">
            <mxPoint x="442" y="2002" as="sourcePoint" />
            <mxPoint x="442" y="2078" as="targetPoint" />
          </mxGeometry>
        </mxCell>
        <mxCell id="-4lkkh-zpTQXG72Wgfdq-137" value="logout" style="rounded=1;whiteSpace=wrap;html=1;" parent="1" vertex="1">
          <mxGeometry x="383" y="1962" width="120" height="40" as="geometry" />
        </mxCell>
        <mxCell id="-4lkkh-zpTQXG72Wgfdq-139" value="" style="ellipse;html=1;shape=endState;fillColor=#000000;strokeColor=#ff0000;" parent="1" vertex="1">
          <mxGeometry x="428" y="2078" width="30" height="30" as="geometry" />
        </mxCell>
        <mxCell id="FqG49EghefAGWDnfyC0o-2" style="edgeStyle=orthogonalEdgeStyle;rounded=0;orthogonalLoop=1;jettySize=auto;html=1;exitX=0.5;exitY=1;exitDx=0;exitDy=0;exitPerimeter=0;entryX=0.5;entryY=0;entryDx=0;entryDy=0;" edge="1" parent="1" source="FqG49EghefAGWDnfyC0o-3" target="FqG49EghefAGWDnfyC0o-4">
          <mxGeometry relative="1" as="geometry" />
        </mxCell>
        <mxCell id="FqG49EghefAGWDnfyC0o-3" value="Is Admin?" style="strokeWidth=2;html=1;shape=mxgraph.flowchart.decision;whiteSpace=wrap;" vertex="1" parent="1">
          <mxGeometry x="390" y="830" width="100" height="100" as="geometry" />
        </mxCell>
        <mxCell id="FqG49EghefAGWDnfyC0o-12" style="edgeStyle=orthogonalEdgeStyle;rounded=0;orthogonalLoop=1;jettySize=auto;html=1;exitX=0.5;exitY=1;exitDx=0;exitDy=0;" edge="1" parent="1" source="FqG49EghefAGWDnfyC0o-4">
          <mxGeometry relative="1" as="geometry">
            <mxPoint x="440" y="1130" as="targetPoint" />
          </mxGeometry>
        </mxCell>
        <mxCell id="FqG49EghefAGWDnfyC0o-4" value="Delete user with his Data" style="rounded=1;whiteSpace=wrap;html=1;" vertex="1" parent="1">
          <mxGeometry x="390" y="980" width="100" height="30" as="geometry" />
        </mxCell>
        <mxCell id="FqG49EghefAGWDnfyC0o-14" value="" style="endArrow=classic;html=1;rounded=0;exitX=1;exitY=0.5;exitDx=0;exitDy=0;exitPerimeter=0;" edge="1" parent="1" source="FqG49EghefAGWDnfyC0o-3">
          <mxGeometry width="50" height="50" relative="1" as="geometry">
            <mxPoint x="520" y="1100" as="sourcePoint" />
            <mxPoint x="440" y="1070" as="targetPoint" />
            <Array as="points">
              <mxPoint x="600" y="880" />
              <mxPoint x="600" y="1070" />
            </Array>
          </mxGeometry>
        </mxCell>
        <mxCell id="FqG49EghefAGWDnfyC0o-15" style="edgeStyle=orthogonalEdgeStyle;rounded=0;orthogonalLoop=1;jettySize=auto;html=1;exitX=0.5;exitY=1;exitDx=0;exitDy=0;exitPerimeter=0;entryX=0.5;entryY=0;entryDx=0;entryDy=0;entryPerimeter=0;" edge="1" parent="1" source="-4lkkh-zpTQXG72Wgfdq-5" target="FqG49EghefAGWDnfyC0o-3">
          <mxGeometry relative="1" as="geometry" />
        </mxCell>
        <mxCell id="FqG49EghefAGWDnfyC0o-16" value="Yes" style="text;html=1;align=center;verticalAlign=middle;resizable=0;points=[];autosize=1;strokeColor=none;fillColor=none;" vertex="1" parent="1">
          <mxGeometry x="380" y="928" width="40" height="30" as="geometry" />
        </mxCell>
        <mxCell id="FqG49EghefAGWDnfyC0o-17" value="No" style="text;html=1;align=center;verticalAlign=middle;resizable=0;points=[];autosize=1;strokeColor=none;fillColor=none;" vertex="1" parent="1">
          <mxGeometry x="520" y="858" width="40" height="30" as="geometry" />
        </mxCell>
        <mxCell id="FqG49EghefAGWDnfyC0o-18" value="No" style="text;html=1;align=center;verticalAlign=middle;resizable=0;points=[];autosize=1;strokeColor=none;fillColor=none;" vertex="1" parent="1">
          <mxGeometry x="510" y="698" width="40" height="30" as="geometry" />
        </mxCell>
        <mxCell id="FqG49EghefAGWDnfyC0o-19" value="Yes" style="text;html=1;align=center;verticalAlign=middle;resizable=0;points=[];autosize=1;strokeColor=none;fillColor=none;" vertex="1" parent="1">
          <mxGeometry x="440" y="780" width="40" height="30" as="geometry" />
        </mxCell>
        <mxCell id="FqG49EghefAGWDnfyC0o-20" value="" style="shape=line;html=1;strokeWidth=6;strokeColor=#ff0000;" vertex="1" parent="1">
          <mxGeometry x="-200" y="1890" width="1160" height="10" as="geometry" />
        </mxCell>
        <mxCell id="FqG49EghefAGWDnfyC0o-21" value="" style="edgeStyle=orthogonalEdgeStyle;html=1;verticalAlign=bottom;endArrow=open;endSize=8;strokeColor=#ff0000;rounded=0;entryX=0.5;entryY=0;entryDx=0;entryDy=0;exitX=0.555;exitY=0.6;exitDx=0;exitDy=0;exitPerimeter=0;" edge="1" parent="1">
          <mxGeometry relative="1" as="geometry">
            <mxPoint x="441" y="1962" as="targetPoint" />
            <mxPoint x="441.8000000000002" y="1896" as="sourcePoint" />
            <Array as="points">
              <mxPoint x="442" y="1930" />
            </Array>
          </mxGeometry>
        </mxCell>
        <mxCell id="FqG49EghefAGWDnfyC0o-22" value="" style="edgeStyle=orthogonalEdgeStyle;html=1;verticalAlign=bottom;endArrow=open;endSize=8;strokeColor=#ff0000;rounded=0;exitX=0.509;exitY=0.7;exitDx=0;exitDy=0;exitPerimeter=0;" edge="1" parent="1" source="-4lkkh-zpTQXG72Wgfdq-100" target="-4lkkh-zpTQXG72Wgfdq-58">
          <mxGeometry relative="1" as="geometry">
            <mxPoint x="439.6" y="1510" as="targetPoint" />
            <Array as="points" />
            <mxPoint x="439.6" y="1460" as="sourcePoint" />
          </mxGeometry>
        </mxCell>
        <mxCell id="FqG49EghefAGWDnfyC0o-25" style="edgeStyle=orthogonalEdgeStyle;rounded=0;orthogonalLoop=1;jettySize=auto;html=1;exitX=0.5;exitY=1;exitDx=0;exitDy=0;entryX=0.517;entryY=0.3;entryDx=0;entryDy=0;entryPerimeter=0;" edge="1" parent="1" source="-4lkkh-zpTQXG72Wgfdq-27" target="-4lkkh-zpTQXG72Wgfdq-100">
          <mxGeometry relative="1" as="geometry" />
        </mxCell>
        <mxCell id="FqG49EghefAGWDnfyC0o-28" value="Write post" style="rounded=1;whiteSpace=wrap;html=1;" vertex="1" parent="1">
          <mxGeometry x="797" y="1195" width="100" height="30" as="geometry" />
        </mxCell>
        <mxCell id="FqG49EghefAGWDnfyC0o-42" style="edgeStyle=orthogonalEdgeStyle;rounded=0;orthogonalLoop=1;jettySize=auto;html=1;exitX=0.5;exitY=1;exitDx=0;exitDy=0;entryX=0.629;entryY=0.2;entryDx=0;entryDy=0;entryPerimeter=0;" edge="1" parent="1" source="-4lkkh-zpTQXG72Wgfdq-26" target="-4lkkh-zpTQXG72Wgfdq-97">
          <mxGeometry relative="1" as="geometry" />
        </mxCell>
        <mxCell id="FqG49EghefAGWDnfyC0o-44" style="edgeStyle=orthogonalEdgeStyle;rounded=0;orthogonalLoop=1;jettySize=auto;html=1;exitX=0.5;exitY=1;exitDx=0;exitDy=0;entryX=0.554;entryY=0.129;entryDx=0;entryDy=0;entryPerimeter=0;" edge="1" parent="1" source="FqG49EghefAGWDnfyC0o-43" target="FqG49EghefAGWDnfyC0o-20">
          <mxGeometry relative="1" as="geometry">
            <Array as="points">
              <mxPoint x="443" y="1830" />
            </Array>
          </mxGeometry>
        </mxCell>
      </root>
    </mxGraphModel>
  </diagram>
</mxfile>
